# xmcd
#
# Track frame offsets:
#	150
#	19722
#	43232
#	64302
#	80145
#	93802
#	116145
#
# Disc length: 1818 seconds
#
# Revision: 1
# Processed by: cddbd v1.5.1PL0 Copyright (c) Steve Scherf et al.
# Submitted via: CDex 1.50Beta5
#
DISCID=5b071807
DTITLE=トーテムロック - TOTEM ROCK ep
DYEAR=1900
DGENRE=
TTITLE0=トークアバウトガール
TTITLE1=STAY TUNE
TTITLE2=フリーダム フリーダム!
TTITLE3=TOTEM ROCK
TTITLE4=大4JOE半
TTITLE5=さよならファンタスティカ
TTITLE6=ヤンビーファーズ
EXTD=
EXTT0=
EXTT1=
EXTT2=
EXTT3=
EXTT4=
EXTT5=
EXTT6=
PLAYORDER=
